<svg xmlns="http://www.w3.org/2000/svg" xmlns:xlink="http://www.w3.org/1999/xlink" contentStyleType="text/css" data-diagram-type="DESCRIPTION" height="2256px" preserveAspectRatio="none" style="width:467px;height:2256px;background:#FFFFFF;" version="1.1" viewBox="0 0 467 2256" width="467px" zoomAndPan="magnify"><title>Co-Found Platform - Use Case Diagram</title><defs/><g><g class="title" data-source-line="2"><text fill="#000000" font-family="sans-serif" font-size="14" font-weight="bold" lengthAdjust="spacing" textLength="306.9951" x="73.4393" y="22.9951">Co-Found Platform - Use Case Diagram</text></g><!--cluster Authentication--><g class="cluster" data-entity="Authentication" data-source-line="10" data-uid="ent0007" id="cluster_Authentication"><rect fill="none" height="421" rx="2.5" ry="2.5" style="stroke:#181818;stroke-width:1;" width="182.63" x="259.04" y="425.2969"/><text fill="#000000" font-family="sans-serif" font-size="14" font-weight="bold" lengthAdjust="spacing" textLength="117.2363" x="291.7368" y="440.292">Authentication</text></g><!--cluster Project Management--><g class="cluster" data-entity="Project Management" data-source-line="19" data-uid="ent0014" id="cluster_Project Management"><rect fill="none" height="430" rx="2.5" ry="2.5" style="stroke:#181818;stroke-width:1;" width="211.05" x="244.83" y="1730.2969"/><text fill="#000000" font-family="sans-serif" font-size="14" font-weight="bold" lengthAdjust="spacing" textLength="163.9941" x="268.3579" y="1745.292">Project Management</text></g><!--cluster Collaboration--><g class="cluster" data-entity="Collaboration" data-source-line="28" data-uid="ent0021" id="cluster_Collaboration"><rect fill="none" height="365" rx="2.5" ry="2.5" style="stroke:#181818;stroke-width:1;" width="191.43" x="254.64" y="1341.2969"/><text fill="#000000" font-family="sans-serif" font-size="14" font-weight="bold" lengthAdjust="spacing" textLength="106.0049" x="297.3526" y="1356.292">Collaboration</text></g><!--cluster Communication--><g class="cluster" data-entity="Communication" data-source-line="36" data-uid="ent0027" id="cluster_Communication"><rect fill="none" height="350" rx="2.5" ry="2.5" style="stroke:#181818;stroke-width:1;" width="206.67" x="247.02" y="870.2969"/><text fill="#000000" font-family="sans-serif" font-size="14" font-weight="bold" lengthAdjust="spacing" textLength="122.623" x="289.0435" y="885.292">Communication</text></g><!--cluster Administration--><g class="cluster" data-entity="Administration" data-source-line="44" data-uid="ent0033" id="cluster_Administration"><rect fill="none" height="357" rx="2.5" ry="2.5" style="stroke:#181818;stroke-width:1;" width="179.55" x="260.58" y="44.2969"/><text fill="#000000" font-family="sans-serif" font-size="14" font-weight="bold" lengthAdjust="spacing" textLength="117.4619" x="291.624" y="59.292">Administration</text></g><!--entity UC01--><g class="entity" data-entity="UC01" data-source-line="11" data-uid="ent0008" id="entity_UC01"><ellipse cx="350.3554" cy="542.3" fill="#F1F1F1" rx="75.3154" ry="17.4631" style="stroke:#181818;stroke-width:0.5;"/><text fill="#000000" font-family="sans-serif" font-size="14" lengthAdjust="spacing" textLength="119.4922" x="290.6093" y="546.9484">Register Account</text></g><!--entity UC02--><g class="entity" data-entity="UC02" data-source-line="12" data-uid="ent0009" id="entity_UC02"><ellipse cx="350.3604" cy="475.3005" fill="#F1F1F1" rx="29.8804" ry="14.5236" style="stroke:#181818;stroke-width:0.5;"/><text fill="#000000" font-family="sans-serif" font-size="14" lengthAdjust="spacing" textLength="38.0146" x="331.3531" y="479.9489">Login</text></g><!--entity UC03--><g class="entity" data-entity="UC03" data-source-line="13" data-uid="ent0010" id="entity_UC03"><ellipse cx="350.3623" cy="676.2973" fill="#F1F1F1" rx="67.2023" ry="15.8405" style="stroke:#181818;stroke-width:0.5;"/><text fill="#000000" font-family="sans-serif" font-size="14" lengthAdjust="spacing" textLength="99.2373" x="300.7437" y="680.9458">Update Profile</text></g><!--entity UC04--><g class="entity" data-entity="UC04" data-source-line="14" data-uid="ent0011" id="entity_UC04"><ellipse cx="350.3564" cy="610.3002" fill="#F1F1F1" rx="65.9664" ry="15.5933" style="stroke:#181818;stroke-width:0.5;"/><text fill="#000000" font-family="sans-serif" font-size="14" lengthAdjust="spacing" textLength="96.0176" x="302.3476" y="614.9486">Manage Skills</text></g><!--entity UC05--><g class="entity" data-entity="UC05" data-source-line="15" data-uid="ent0012" id="entity_UC05"><ellipse cx="350.3597" cy="813.2948" fill="#F1F1F1" rx="72.0897" ry="16.8179" style="stroke:#181818;stroke-width:0.5;"/><text fill="#000000" font-family="sans-serif" font-size="14" lengthAdjust="spacing" textLength="111.5967" x="294.5613" y="817.9432">Upload Portfolio</text></g><!--entity UC06--><g class="entity" data-entity="UC06" data-source-line="16" data-uid="ent0013" id="entity_UC06"><ellipse cx="350.3595" cy="744.2928" fill="#F1F1F1" rx="71.6295" ry="16.7259" style="stroke:#181818;stroke-width:0.5;"/><text fill="#000000" font-family="sans-serif" font-size="14" lengthAdjust="spacing" textLength="110.4551" x="295.132" y="748.9412">Reset Password</text></g><!--entity UC07--><g class="entity" data-entity="UC07" data-source-line="20" data-uid="ent0015" id="entity_UC07"><ellipse cx="350.3627" cy="1986.2954" fill="#F1F1F1" rx="67.3927" ry="15.8785" style="stroke:#181818;stroke-width:0.5;"/><text fill="#000000" font-family="sans-serif" font-size="14" lengthAdjust="spacing" textLength="99.7295" x="300.4979" y="1990.9439">Create Project</text></g><!--entity UC08--><g class="entity" data-entity="UC08" data-source-line="21" data-uid="ent0016" id="entity_UC08"><ellipse cx="350.3627" cy="1782.2954" fill="#F1F1F1" rx="72.0427" ry="16.8085" style="stroke:#181818;stroke-width:0.5;"/><text fill="#000000" font-family="sans-serif" font-size="14" lengthAdjust="spacing" textLength="111.4805" x="294.6225" y="1786.9439">Browse Projects</text></g><!--entity UC09--><g class="entity" data-entity="UC09" data-source-line="22" data-uid="ent0017" id="entity_UC09"><ellipse cx="350.3563" cy="1850.2941" fill="#F1F1F1" rx="70.8863" ry="16.5773" style="stroke:#181818;stroke-width:0.5;"/><text fill="#000000" font-family="sans-serif" font-size="14" lengthAdjust="spacing" textLength="108.6025" x="296.0551" y="1854.9426">Search Projects</text></g><!--entity UC10--><g class="entity" data-entity="UC10" data-source-line="23" data-uid="ent0018" id="entity_UC10"><ellipse cx="350.3622" cy="1918.3013" fill="#F1F1F1" rx="71.8222" ry="16.7644" style="stroke:#181818;stroke-width:0.5;"/><text fill="#000000" font-family="sans-serif" font-size="14" lengthAdjust="spacing" textLength="110.9336" x="294.8954" y="1922.9497">Apply to Project</text></g><!--entity UC11--><g class="entity" data-entity="UC11" data-source-line="24" data-uid="ent0019" id="entity_UC11"><ellipse cx="350.3616" cy="2128.2932" fill="#F1F1F1" rx="67.2816" ry="15.8563" style="stroke:#181818;stroke-width:0.5;"/><text fill="#000000" font-family="sans-serif" font-size="14" lengthAdjust="spacing" textLength="99.4424" x="300.6404" y="2132.9416">Manage Team</text></g><!--entity UC12--><g class="entity" data-entity="UC12" data-source-line="25" data-uid="ent0020" id="entity_UC12"><ellipse cx="350.3559" cy="2057.2921" fill="#F1F1F1" rx="89.5259" ry="20.3052" style="stroke:#181818;stroke-width:0.5;"/><text fill="#000000" font-family="sans-serif" font-size="14" lengthAdjust="spacing" textLength="152.667" x="274.0224" y="2061.9405">Update Project Status</text></g><!--entity UC13--><g class="entity" data-entity="UC13" data-source-line="29" data-uid="ent0022" id="entity_UC13"><ellipse cx="350.3595" cy="1603.2988" fill="#F1F1F1" rx="78.7595" ry="18.1519" style="stroke:#181818;stroke-width:0.5;"/><text fill="#000000" font-family="sans-serif" font-size="14" lengthAdjust="spacing" textLength="127.7432" x="286.4879" y="1607.9472">Find Collaborators</text></g><!--entity UC14--><g class="entity" data-entity="UC14" data-source-line="30" data-uid="ent0023" id="entity_UC14"><ellipse cx="350.3645" cy="1673.2938" fill="#F1F1F1" rx="72.6845" ry="16.9369" style="stroke:#181818;stroke-width:0.5;"/><text fill="#000000" font-family="sans-serif" font-size="14" lengthAdjust="spacing" textLength="113.0664" x="293.8313" y="1677.9422">Send Invitations</text></g><!--entity UC15--><g class="entity" data-entity="UC15" data-source-line="31" data-uid="ent0024" id="entity_UC15"><ellipse cx="350.3586" cy="1532.2926" fill="#F1F1F1" rx="77.9286" ry="17.9857" style="stroke:#181818;stroke-width:0.5;"/><text fill="#000000" font-family="sans-serif" font-size="14" lengthAdjust="spacing" textLength="125.7676" x="287.4748" y="1536.941">Accept Invitations</text></g><!--entity UC16--><g class="entity" data-entity="UC16" data-source-line="32" data-uid="ent0025" id="entity_UC16"><ellipse cx="350.3608" cy="1463.295" fill="#F1F1F1" rx="66.1908" ry="15.6382" style="stroke:#181818;stroke-width:0.5;"/><text fill="#000000" font-family="sans-serif" font-size="14" lengthAdjust="spacing" textLength="96.6055" x="302.0581" y="1467.9435">View Matches</text></g><!--entity UC17--><g class="entity" data-entity="UC17" data-source-line="33" data-uid="ent0026" id="entity_UC17"><ellipse cx="350.3586" cy="1394.3006" fill="#F1F1F1" rx="79.7186" ry="18.3437" style="stroke:#181818;stroke-width:0.5;"/><text fill="#000000" font-family="sans-serif" font-size="14" lengthAdjust="spacing" textLength="130.0127" x="285.3523" y="1398.949">Rate Compatibility</text></g><!--entity UC18--><g class="entity" data-entity="UC18" data-source-line="37" data-uid="ent0028" id="entity_UC18"><ellipse cx="350.3629" cy="1188.2994" fill="#F1F1F1" rx="67.9129" ry="15.9826" style="stroke:#181818;stroke-width:0.5;"/><text fill="#000000" font-family="sans-serif" font-size="14" lengthAdjust="spacing" textLength="101.0693" x="299.8282" y="1192.9479">Send Message</text></g><!--entity UC19--><g class="entity" data-entity="UC19" data-source-line="38" data-uid="ent0029" id="entity_UC19"><ellipse cx="350.3569" cy="984.3005" fill="#F1F1F1" rx="59.6369" ry="14.5236" style="stroke:#181818;stroke-width:0.5;"/><text fill="#000000" font-family="sans-serif" font-size="14" lengthAdjust="spacing" textLength="80.0967" x="310.3086" y="988.9489">Group Chat</text></g><!--entity UC20--><g class="entity" data-entity="UC20" data-source-line="39" data-uid="ent0030" id="entity_UC20"><ellipse cx="350.3647" cy="920.3005" fill="#F1F1F1" rx="57.3747" ry="14.5236" style="stroke:#181818;stroke-width:0.5;"/><text fill="#000000" font-family="sans-serif" font-size="14" lengthAdjust="spacing" textLength="76.8975" x="311.916" y="924.9489">Share Files</text></g><!--entity UC21--><g class="entity" data-entity="UC21" data-source-line="40" data-uid="ent0031" id="entity_UC21"><ellipse cx="350.3596" cy="1122.3005" fill="#F1F1F1" rx="52.5796" ry="14.5236" style="stroke:#181818;stroke-width:0.5;"/><text fill="#000000" font-family="sans-serif" font-size="14" lengthAdjust="spacing" textLength="70.1162" x="315.3015" y="1126.9489">Video Call</text></g><!--entity UC22--><g class="entity" data-entity="UC22" data-source-line="41" data-uid="ent0032" id="entity_UC22"><ellipse cx="350.3559" cy="1053.294" fill="#F1F1F1" rx="87.3359" ry="19.8672" style="stroke:#181818;stroke-width:0.5;"/><text fill="#000000" font-family="sans-serif" font-size="14" lengthAdjust="spacing" textLength="147.6836" x="276.5141" y="1057.9425">Manage Notifications</text></g><!--entity UC23--><g class="entity" data-entity="UC23" data-source-line="45" data-uid="ent0034" id="entity_UC23"><ellipse cx="350.3629" cy="231.2995" fill="#F1F1F1" rx="67.2129" ry="15.8426" style="stroke:#181818;stroke-width:0.5;"/><text fill="#000000" font-family="sans-serif" font-size="14" lengthAdjust="spacing" textLength="99.2646" x="300.7306" y="235.9479">Manage Users</text></g><!--entity UC24--><g class="entity" data-entity="UC24" data-source-line="46" data-uid="ent0035" id="entity_UC24"><ellipse cx="350.3602" cy="368.2949" fill="#F1F1F1" rx="71.1902" ry="16.638" style="stroke:#181818;stroke-width:0.5;"/><text fill="#000000" font-family="sans-serif" font-size="14" lengthAdjust="spacing" textLength="109.3613" x="295.6795" y="372.9433">Review Reports</text></g><!--entity UC25--><g class="entity" data-entity="UC25" data-source-line="47" data-uid="ent0036" id="entity_UC25"><ellipse cx="350.362" cy="164.2973" fill="#F1F1F1" rx="68.102" ry="16.0204" style="stroke:#181818;stroke-width:0.5;"/><text fill="#000000" font-family="sans-serif" font-size="14" lengthAdjust="spacing" textLength="101.5547" x="299.5846" y="168.9457">View Analytics</text></g><!--entity UC26--><g class="entity" data-entity="UC26" data-source-line="48" data-uid="ent0037" id="entity_UC26"><ellipse cx="350.363" cy="299.3015" fill="#F1F1F1" rx="73.773" ry="17.1546" style="stroke:#181818;stroke-width:0.5;"/><text fill="#000000" font-family="sans-serif" font-size="14" lengthAdjust="spacing" textLength="115.7393" x="292.4934" y="303.9499">Manage Content</text></g><!--entity UC27--><g class="entity" data-entity="UC27" data-source-line="49" data-uid="ent0038" id="entity_UC27"><ellipse cx="350.3555" cy="96.296" fill="#F1F1F1" rx="73.0955" ry="17.0191" style="stroke:#181818;stroke-width:0.5;"/><text fill="#000000" font-family="sans-serif" font-size="14" lengthAdjust="spacing" textLength="114.0781" x="293.3164" y="100.9444">System Settings</text></g><!--entity user--><g class="entity" data-entity="user" data-source-line="4" data-uid="ent0002" id="entity_user"><ellipse cx="92.9228" cy="1125.6569" fill="#F1F1F1" rx="8" ry="8" style="stroke:#181818;stroke-width:0.5;"/><path d="M92.9228,1133.6569 L92.9228,1160.6569 M79.9228,1141.6569 L105.9228,1141.6569 M92.9228,1160.6569 L79.9228,1175.6569 M92.9228,1160.6569 L105.9228,1175.6569" fill="none" style="stroke:#181818;stroke-width:0.5;"/><text fill="#000000" font-family="sans-serif" font-size="14" lengthAdjust="spacing" textLength="90.6855" x="47.58" y="1190.152">Regular User</text></g><!--entity owner--><g class="entity" data-entity="owner" data-source-line="5" data-uid="ent0003" id="entity_owner"><ellipse cx="92.9176" cy="2027.6569" fill="#F1F1F1" rx="8" ry="8" style="stroke:#181818;stroke-width:0.5;"/><path d="M92.9176,2035.6569 L92.9176,2062.6569 M79.9176,2043.6569 L105.9176,2043.6569 M92.9176,2062.6569 L79.9176,2077.6569 M92.9176,2062.6569 L105.9176,2077.6569" fill="none" style="stroke:#181818;stroke-width:0.5;"/><text fill="#000000" font-family="sans-serif" font-size="14" lengthAdjust="spacing" textLength="98.6152" x="43.61" y="2092.152">Project Owner</text></g><!--entity admin--><g class="entity" data-entity="admin" data-source-line="6" data-uid="ent0004" id="entity_admin"><ellipse cx="92.9213" cy="122.6569" fill="#F1F1F1" rx="8" ry="8" style="stroke:#181818;stroke-width:0.5;"/><path d="M92.9213,130.6569 L92.9213,157.6569 M79.9213,138.6569 L105.9213,138.6569 M92.9213,157.6569 L79.9213,172.6569 M92.9213,157.6569 L105.9213,172.6569" fill="none" style="stroke:#181818;stroke-width:0.5;"/><text fill="#000000" font-family="sans-serif" font-size="14" lengthAdjust="spacing" textLength="95.6826" x="45.08" y="187.152">Administrator</text></g><!--entity moderator--><g class="entity" data-entity="moderator" data-source-line="7" data-uid="ent0005" id="entity_moderator"><ellipse cx="92.915" cy="338.6569" fill="#F1F1F1" rx="8" ry="8" style="stroke:#181818;stroke-width:0.5;"/><path d="M92.915,346.6569 L92.915,373.6569 M79.915,354.6569 L105.915,354.6569 M92.915,373.6569 L79.915,388.6569 M92.915,373.6569 L105.915,388.6569" fill="none" style="stroke:#181818;stroke-width:0.5;"/><text fill="#000000" font-family="sans-serif" font-size="14" lengthAdjust="spacing" textLength="72.29" x="56.77" y="403.152">Moderator</text></g><!--entity guest--><g class="entity" data-entity="guest" data-source-line="8" data-uid="ent0006" id="entity_guest"><ellipse cx="92.9191" cy="512.6569" fill="#F1F1F1" rx="8" ry="8" style="stroke:#181818;stroke-width:0.5;"/><path d="M92.9191,520.6569 L92.9191,547.6569 M79.9191,528.6569 L105.9191,528.6569 M92.9191,547.6569 L79.9191,562.6569 M92.9191,547.6569 L105.9191,562.6569" fill="none" style="stroke:#181818;stroke-width:0.5;"/><text fill="#000000" font-family="sans-serif" font-size="14" lengthAdjust="spacing" textLength="41.1182" x="72.36" y="577.152">Guest</text></g><g class="entity" data-entity="GMN79" data-source-line="105" data-uid="ent0080" id="entity_GMN79"><path d="M239.84,1239.4669 L239.84,1325.1309 A0,0 0 0 0 239.84,1325.1309 L460.8737,1325.1309 A0,0 0 0 0 460.8737,1325.1309 L460.8737,1249.4669 L450.8737,1239.4669 L266.46,1239.4669 L138.71,1177.5669 L258.46,1239.4669 L239.84,1239.4669 A0,0 0 0 0 239.84,1239.4669" fill="#FEFFDD" style="stroke:#181818;stroke-width:0.5;"/><path d="M450.8737,1239.4669 L450.8737,1249.4669 L460.8737,1249.4669 L450.8737,1239.4669" fill="#FEFFDD" style="stroke:#181818;stroke-width:0.5;"/><text fill="#000000" font-family="sans-serif" font-size="13" lengthAdjust="spacing" textLength="167.959" x="245.84" y="1256.5338">Regular User can perform</text><text fill="#000000" font-family="sans-serif" font-size="13" lengthAdjust="spacing" textLength="156.0889" x="245.84" y="1271.6666">basic platform activities</text><text fill="#000000" font-family="sans-serif" font-size="13" lengthAdjust="spacing" textLength="200.0337" x="245.84" y="1286.7994">including profile management,</text><text fill="#000000" font-family="sans-serif" font-size="13" lengthAdjust="spacing" textLength="141.3179" x="245.84" y="1301.9322">project browsing, and</text><text fill="#000000" font-family="sans-serif" font-size="13" lengthAdjust="spacing" textLength="84.7095" x="245.84" y="1317.065">collaboration</text></g><g class="entity" data-entity="GMN82" data-source-line="113" data-uid="ent0083" id="entity_GMN82"><path d="M270.85,2179.0369 L270.85,2249.5681 L429.8544,2249.5681 L429.8544,2189.0369 L419.8544,2179.0369 L270.85,2179.0369" fill="#FEFFDD" style="stroke:#181818;stroke-width:0.5;"/><path d="M419.8544,2179.0369 L419.8544,2189.0369 L429.8544,2189.0369 L419.8544,2179.0369" fill="#FEFFDD" style="stroke:#181818;stroke-width:1;"/><text fill="#000000" font-family="sans-serif" font-size="13" lengthAdjust="spacing" textLength="138.0044" x="276.85" y="2196.1038">Project Owner has all</text><text fill="#000000" font-family="sans-serif" font-size="13" lengthAdjust="spacing" textLength="126.6421" x="276.85" y="2211.2366">user privileges plus</text><text fill="#000000" font-family="sans-serif" font-size="13" lengthAdjust="spacing" textLength="131.4854" x="276.85" y="2226.3694">project creation and</text><text fill="#000000" font-family="sans-serif" font-size="13" lengthAdjust="spacing" textLength="124.9409" x="276.85" y="2241.5022">team management</text></g><g class="entity" data-entity="GMN85" data-source-line="120" data-uid="ent0086" id="entity_GMN85"><path d="M6,225.0369 L6,295.5681 A0,0 0 0 0 6,295.5681 L179.8389,295.5681 A0,0 0 0 0 179.8389,295.5681 L179.8389,235.0369 L169.8389,225.0369 L96.92,225.0369 L92.92,190.8469 L88.92,225.0369 L6,225.0369 A0,0 0 0 0 6,225.0369" fill="#FEFFDD" style="stroke:#181818;stroke-width:0.5;"/><path d="M169.8389,225.0369 L169.8389,235.0369 L179.8389,235.0369 L169.8389,225.0369" fill="#FEFFDD" style="stroke:#181818;stroke-width:0.5;"/><text fill="#000000" font-family="sans-serif" font-size="13" lengthAdjust="spacing" textLength="152.8389" x="12" y="242.1038">Administrator manages</text><text fill="#000000" font-family="sans-serif" font-size="13" lengthAdjust="spacing" textLength="149.9634" x="12" y="257.2366">platform configuration,</text><text fill="#000000" font-family="sans-serif" font-size="13" lengthAdjust="spacing" textLength="141.959" x="12" y="272.3694">analytics, and system</text><text fill="#000000" font-family="sans-serif" font-size="13" lengthAdjust="spacing" textLength="85.1665" x="12" y="287.5022">maintenance</text></g><!--link user to UC01--><g class="link" data-entity-1="user" data-entity-2="UC01" data-source-line="53" data-uid="lnk39" id="link_user_UC01"><path d="M98.47,1117.0169 C112.99,1001.0969 161.68,657.0369 236.83,577.2969 C249.25,564.1269 260.7794,557.5888 278.0794,552.4388" fill="none" id="user-to-UC01" style="stroke:#181818;stroke-width:1;"/><polygon fill="#181818" points="283.83,550.7269,274.0628,549.461,279.0378,552.1534,276.3454,557.1284,283.83,550.7269" style="stroke:#181818;stroke-width:1;"/></g><!--link user to UC02--><g class="link" data-entity-1="user" data-entity-2="UC02" data-source-line="54" data-uid="lnk40" id="link_user_UC02"><path d="M97.29,1116.8269 C109.03,991.3969 152.12,597.2469 236.83,507.2969 C258.27,484.5269 288.657,478.0285 314.227,476.0985" fill="none" id="user-to-UC02" style="stroke:#181818;stroke-width:1;"/><polygon fill="#181818" points="320.21,475.6469,310.9345,472.3356,315.2242,476.0232,311.5366,480.3129,320.21,475.6469" style="stroke:#181818;stroke-width:1;"/></g><!--link user to UC03--><g class="link" data-entity-1="user" data-entity-2="UC03" data-source-line="55" data-uid="lnk41" id="link_user_UC03"><path d="M94.84,1116.7469 C99.02,1031.1569 121.23,823.9169 236.83,710.2969 C250.95,696.4269 264.7119,689.692 283.5819,684.802" fill="none" id="user-to-UC03" style="stroke:#181818;stroke-width:1;"/><polygon fill="#181818" points="289.39,683.2969,279.6744,681.6825,284.5499,684.5512,281.6812,689.4267,289.39,683.2969" style="stroke:#181818;stroke-width:1;"/></g><!--link user to UC04--><g class="link" data-entity-1="user" data-entity-2="UC04" data-source-line="56" data-uid="lnk42" id="link_user_UC04"><path d="M99.75,1116.8069 C116.7,1009.7569 169.08,711.9369 236.83,643.2969 C250.7,629.2469 264.3968,622.5527 283.2868,617.8627" fill="none" id="user-to-UC04" style="stroke:#181818;stroke-width:1;"/><polygon fill="#181818" points="289.11,616.4169,279.4113,614.7034,284.2573,617.6217,281.339,622.4677,289.11,616.4169" style="stroke:#181818;stroke-width:1;"/></g><!--link user to UC05--><g class="link" data-entity-1="user" data-entity-2="UC05" data-source-line="57" data-uid="lnk43" id="link_user_UC05"><path d="M107.67,1116.9369 C128.86,1061.8069 173.74,959.1169 236.83,889.2969 C260.14,863.5069 288.6897,845.0929 313.1497,831.6729" fill="none" id="user-to-UC05" style="stroke:#181818;stroke-width:1;"/><polygon fill="#181818" points="318.41,828.7869,308.5955,829.6091,314.0264,831.1919,312.4436,836.6228,318.41,828.7869" style="stroke:#181818;stroke-width:1;"/></g><!--link user to UC06--><g class="link" data-entity-1="user" data-entity-2="UC06" data-source-line="58" data-uid="lnk44" id="link_user_UC06"><path d="M97.57,1116.7369 C106.79,1041.0469 137.87,872.3369 236.83,779.2969 C250.84,766.1269 263.9517,759.5227 282.2617,754.4027" fill="none" id="user-to-UC06" style="stroke:#181818;stroke-width:1;"/><polygon fill="#181818" points="288.04,752.7869,278.2953,751.3583,283.2247,754.1334,280.4497,759.0628,288.04,752.7869" style="stroke:#181818;stroke-width:1;"/></g><!--link user to UC08--><g class="link" data-entity-1="user" data-entity-2="UC08" data-source-line="59" data-uid="lnk45" id="link_user_UC08"><path d="M94.81,1193.8869 C98.81,1289.5269 120.47,1541.6669 236.83,1706.2969 C256.42,1734.0269 284.2194,1751.9117 309.4794,1764.6117" fill="none" id="user-to-UC08" style="stroke:#181818;stroke-width:1;"/><polygon fill="#181818" points="314.84,1767.3069,308.5959,1759.6904,310.3728,1765.0609,305.0023,1766.8379,314.84,1767.3069" style="stroke:#181818;stroke-width:1;"/></g><!--link user to UC09--><g class="link" data-entity-1="user" data-entity-2="UC09" data-source-line="60" data-uid="lnk46" id="link_user_UC09"><path d="M97.16,1193.5969 C108.62,1320.3569 151.25,1723.5369 236.83,1816.2969 C249.56,1830.0969 261.8834,1836.7911 279.8734,1841.7211" fill="none" id="user-to-UC09" style="stroke:#181818;stroke-width:1;"/><polygon fill="#181818" points="285.66,1843.3069,278.0372,1837.0704,280.8378,1841.9854,275.9228,1844.786,285.66,1843.3069" style="stroke:#181818;stroke-width:1;"/></g><!--link user to UC10--><g class="link" data-entity-1="user" data-entity-2="UC10" data-source-line="61" data-uid="lnk47" id="link_user_UC10"><path d="M96.32,1193.6769 C105.54,1328.8869 142.94,1780.5369 236.83,1884.2969 C249.22,1897.9969 261.1326,1904.6379 278.8326,1909.5979" fill="none" id="user-to-UC10" style="stroke:#181818;stroke-width:1;"/><polygon fill="#181818" points="284.61,1911.2169,277.0232,1904.9368,279.7955,1909.8677,274.8645,1912.64,284.61,1911.2169" style="stroke:#181818;stroke-width:1;"/></g><!--link user to UC13--><g class="link" data-entity-1="user" data-entity-2="UC13" data-source-line="62" data-uid="lnk48" id="link_user_UC13"><path d="M96.13,1193.6469 C102.87,1274.3469 129.83,1462.8569 236.83,1567.2969 C249.6,1579.7669 260.9651,1586.1209 277.9551,1591.4509" fill="none" id="user-to-UC13" style="stroke:#181818;stroke-width:1;"/><polygon fill="#181818" points="283.68,1593.2469,276.29,1586.7363,278.9093,1591.7502,273.8953,1594.3695,283.68,1593.2469" style="stroke:#181818;stroke-width:1;"/></g><!--link user to UC14--><g class="link" data-entity-1="user" data-entity-2="UC14" data-source-line="63" data-uid="lnk49" id="link_user_UC14"><path d="M93.66,1193.7269 C95.18,1284.4269 111.93,1513.6069 236.83,1639.2969 C249.85,1652.4069 261.9447,1658.8601 279.6247,1663.8401" fill="none" id="user-to-UC14" style="stroke:#181818;stroke-width:1;"/><polygon fill="#181818" points="285.4,1665.4669,277.8216,1659.1766,280.5873,1664.1113,275.6526,1666.8769,285.4,1665.4669" style="stroke:#181818;stroke-width:1;"/></g><!--link user to UC15--><g class="link" data-entity-1="user" data-entity-2="UC15" data-source-line="64" data-uid="lnk50" id="link_user_UC15"><path d="M99.35,1193.7969 C111.28,1264.0269 146.32,1413.3569 236.83,1496.2969 C250.29,1508.6369 262.254,1514.9868 279.624,1520.3168" fill="none" id="user-to-UC15" style="stroke:#181818;stroke-width:1;"/><polygon fill="#181818" points="285.36,1522.0769,277.9294,1515.6127,280.58,1520.6101,275.5826,1523.2607,285.36,1522.0769" style="stroke:#181818;stroke-width:1;"/></g><!--link user to UC16--><g class="link" data-entity-1="user" data-entity-2="UC16" data-source-line="65" data-uid="lnk51" id="link_user_UC16"><path d="M103.47,1193.8869 C120.22,1253.4769 160.58,1367.5769 236.83,1430.2969 C252.39,1443.1069 266.93,1449.4881 286.04,1454.2781" fill="none" id="user-to-UC16" style="stroke:#181818;stroke-width:1;"/><polygon fill="#181818" points="291.86,1455.7369,284.1026,1449.6687,287.01,1454.5212,282.1575,1457.4287,291.86,1455.7369" style="stroke:#181818;stroke-width:1;"/></g><!--link user to UC17--><g class="link" data-entity-1="user" data-entity-2="UC17" data-source-line="66" data-uid="lnk52" id="link_user_UC17"><path d="M115.54,1193.7869 C140.33,1235.0369 184.38,1300.2669 236.83,1342.2969 C256.65,1358.1769 276.526,1368.2465 298.216,1376.8865" fill="none" id="user-to-UC17" style="stroke:#181818;stroke-width:1;"/><polygon fill="#181818" points="303.79,1379.1069,296.9092,1372.0603,299.145,1377.2566,293.9487,1379.4924,303.79,1379.1069" style="stroke:#181818;stroke-width:1;"/></g><!--link user to UC18--><g class="link" data-entity-1="user" data-entity-2="UC18" data-source-line="67" data-uid="lnk53" id="link_user_UC18"><path d="M138.71,1161.0869 C180.77,1166.5169 238.0295,1173.9181 284.2395,1179.8881" fill="none" id="user-to-UC18" style="stroke:#181818;stroke-width:1;"/><polygon fill="#181818" points="290.19,1180.6569,281.7767,1175.5367,285.2312,1180.0162,280.7517,1183.4708,290.19,1180.6569" style="stroke:#181818;stroke-width:1;"/></g><!--link user to UC19--><g class="link" data-entity-1="user" data-entity-2="UC19" data-source-line="68" data-uid="lnk54" id="link_user_UC19"><path d="M124.02,1116.9069 C150.55,1085.5469 191.89,1042.2869 236.83,1016.2969 C256.26,1005.0669 274.0427,998.9546 294.6127,994.0646" fill="none" id="user-to-UC19" style="stroke:#181818;stroke-width:1;"/><polygon fill="#181818" points="300.45,992.6769,290.7689,990.8668,295.5856,993.8333,292.6191,998.6499,300.45,992.6769" style="stroke:#181818;stroke-width:1;"/></g><!--link user to UC20--><g class="link" data-entity-1="user" data-entity-2="UC20" data-source-line="69" data-uid="lnk55" id="link_user_UC20"><path d="M111.04,1116.7269 C133.41,1070.7569 176.9,994.8369 236.83,952.2969 C254.97,939.4269 272.315,933.0281 292.945,928.4081" fill="none" id="user-to-UC20" style="stroke:#181818;stroke-width:1;"/><polygon fill="#181818" points="298.8,927.0969,289.1434,925.1604,293.9209,928.1895,290.8917,932.967,298.8,927.0969" style="stroke:#181818;stroke-width:1;"/></g><!--link user to UC21--><g class="link" data-entity-1="user" data-entity-2="UC21" data-source-line="70" data-uid="lnk56" id="link_user_UC21"><path d="M138.71,1149.5169 C184.49,1143.5969 249.3794,1135.2154 296.0694,1129.1854" fill="none" id="user-to-UC21" style="stroke:#181818;stroke-width:1;"/><polygon fill="#181818" points="302.02,1128.4169,292.5818,1125.6026,297.0612,1129.0573,293.6065,1133.5367,302.02,1128.4169" style="stroke:#181818;stroke-width:1;"/></g><!--link user to UC22--><g class="link" data-entity-1="user" data-entity-2="UC22" data-source-line="71" data-uid="lnk57" id="link_user_UC22"><path d="M138.75,1133.3869 C166.65,1120.1369 203.44,1103.3369 236.83,1090.2969 C256.08,1082.7869 271.8492,1077.3073 290.8392,1071.1873" fill="none" id="user-to-UC22" style="stroke:#181818;stroke-width:1;"/><polygon fill="#181818" points="296.55,1069.3469,286.7569,1068.3004,291.791,1070.8806,289.2108,1075.9147,296.55,1069.3469" style="stroke:#181818;stroke-width:1;"/></g><!--link owner to UC07--><g class="link" data-entity-1="owner" data-entity-2="UC07" data-source-line="74" data-uid="lnk58" id="link_owner_UC07"><path d="M142.57,2043.7769 C189.61,2030.7069 254.4692,2012.6737 299.7992,2000.0737" fill="none" id="owner-to-UC07" style="stroke:#181818;stroke-width:1;"/><polygon fill="#181818" points="305.58,1998.4669,295.8375,1997.0233,300.7626,1999.8059,297.98,2004.731,305.58,1998.4669" style="stroke:#181818;stroke-width:1;"/></g><!--link owner to UC11--><g class="link" data-entity-1="owner" data-entity-2="UC11" data-source-line="75" data-uid="lnk59" id="link_owner_UC11"><path d="M142.57,2070.8269 C189.61,2083.8969 254.4692,2101.93 299.7992,2114.53" fill="none" id="owner-to-UC11" style="stroke:#181818;stroke-width:1;"/><polygon fill="#181818" points="305.58,2116.1369,297.98,2109.8727,300.7626,2114.7978,295.8375,2117.5805,305.58,2116.1369" style="stroke:#181818;stroke-width:1;"/></g><!--link owner to UC12--><g class="link" data-entity-1="owner" data-entity-2="UC12" data-source-line="76" data-uid="lnk60" id="link_owner_UC12"><path d="M142.57,2057.2969 C175.86,2057.2969 214.97,2057.2969 254.56,2057.2969" fill="none" id="owner-to-UC12" style="stroke:#181818;stroke-width:1;"/><polygon fill="#181818" points="260.56,2057.2969,251.56,2053.2969,255.56,2057.2969,251.56,2061.2969,260.56,2057.2969" style="stroke:#181818;stroke-width:1;"/></g><!--link owner to UC14--><g class="link" data-entity-1="owner" data-entity-2="UC14" data-source-line="77" data-uid="lnk61" id="link_owner_UC14"><path d="M104.41,2018.7769 C122.85,1956.5269 166.01,1832.4269 236.83,1749.2969 C259.15,1723.0969 287.3247,1704.9069 311.9647,1691.6669" fill="none" id="owner-to-UC14" style="stroke:#181818;stroke-width:1;"/><polygon fill="#181818" points="317.25,1688.8269,307.4287,1689.5633,312.8456,1691.1935,311.2154,1696.6104,317.25,1688.8269" style="stroke:#181818;stroke-width:1;"/></g><!--link admin to UC23--><g class="link" data-entity-1="admin" data-entity-2="UC23" data-source-line="80" data-uid="lnk62" id="link_admin_UC23"><path d="M141.13,167.8369 C168.93,176.9069 204.82,188.4569 236.83,198.2969 C259.69,205.3369 279.5179,211.1843 300.4979,217.2743" fill="none" id="admin-to-UC23" style="stroke:#181818;stroke-width:1;"/><polygon fill="#181818" points="306.26,218.9469,298.7319,212.5965,301.4582,217.553,296.5017,220.2794,306.26,218.9469" style="stroke:#181818;stroke-width:1;"/></g><!--link admin to UC25--><g class="link" data-entity-1="admin" data-entity-2="UC25" data-source-line="81" data-uid="lnk63" id="link_admin_UC25"><path d="M141.07,154.5169 C181,156.3969 232.6966,158.8256 277.2366,160.9156" fill="none" id="admin-to-UC25" style="stroke:#181818;stroke-width:1;"/><polygon fill="#181818" points="283.23,161.1969,274.4274,156.7794,278.2355,160.9625,274.0524,164.7706,283.23,161.1969" style="stroke:#181818;stroke-width:1;"/></g><!--link admin to UC27--><g class="link" data-entity-1="admin" data-entity-2="UC27" data-source-line="82" data-uid="lnk64" id="link_admin_UC27"><path d="M141.07,141.9669 C184.89,132.3569 244.2391,119.3415 289.9991,109.3115" fill="none" id="admin-to-UC27" style="stroke:#181818;stroke-width:1;"/><polygon fill="#181818" points="295.86,108.0269,286.2123,106.0466,290.9759,109.0974,287.9251,113.8611,295.86,108.0269" style="stroke:#181818;stroke-width:1;"/></g><!--link moderator to UC24--><g class="link" data-entity-1="moderator" data-entity-2="UC24" data-source-line="85" data-uid="lnk65" id="link_moderator_UC24"><path d="M129.44,368.2969 C167.89,368.2969 224.22,368.2969 272.72,368.2969" fill="none" id="moderator-to-UC24" style="stroke:#181818;stroke-width:1;"/><polygon fill="#181818" points="278.72,368.2969,269.72,364.2969,273.72,368.2969,269.72,372.2969,278.72,368.2969" style="stroke:#181818;stroke-width:1;"/></g><!--link moderator to UC26--><g class="link" data-entity-1="moderator" data-entity-2="UC26" data-source-line="86" data-uid="lnk66" id="link_moderator_UC26"><path d="M129.44,358.7069 C174.13,346.6369 245.2676,327.4217 295.2776,313.9117" fill="none" id="moderator-to-UC26" style="stroke:#181818;stroke-width:1;"/><polygon fill="#181818" points="301.07,312.3469,291.3383,310.8325,296.243,313.6509,293.4246,318.5556,301.07,312.3469" style="stroke:#181818;stroke-width:1;"/></g><!--link guest to UC01--><g class="link" data-entity-1="guest" data-entity-2="UC01" data-source-line="89" data-uid="lnk67" id="link_guest_UC01"><path d="M113.96,542.2969 C148.19,542.2969 213.55,542.2969 268.78,542.2969" fill="none" id="guest-to-UC01" style="stroke:#181818;stroke-width:1;"/><polygon fill="#181818" points="274.78,542.2969,265.78,538.2969,269.78,542.2969,265.78,546.2969,274.78,542.2969" style="stroke:#181818;stroke-width:1;"/></g><!--link guest to UC02--><g class="link" data-entity-1="guest" data-entity-2="UC02" data-source-line="90" data-uid="lnk68" id="link_guest_UC02"><path d="M113.96,537.0469 C159.83,525.0169 266.5964,497.0094 317.6364,483.6194" fill="none" id="guest-to-UC02" style="stroke:#181818;stroke-width:1;"/><polygon fill="#181818" points="323.44,482.0969,313.7196,480.5116,318.6037,483.3657,315.7496,488.2498,323.44,482.0969" style="stroke:#181818;stroke-width:1;"/></g><!--link guest to UC08--><g class="link" data-entity-1="guest" data-entity-2="UC08" data-source-line="91" data-uid="lnk69" id="link_guest_UC08"><path d="M100.65,580.6869 C116.28,670.9069 155.58,903.6369 179.84,1099.2969 C196.51,1233.7569 167.73,1589.7669 236.83,1706.2969 C253.9,1735.0969 281.2456,1752.7415 307.0256,1765.0515" fill="none" id="guest-to-UC08" style="stroke:#181818;stroke-width:1;"/><polygon fill="#181818" points="312.44,1767.6369,306.042,1760.1492,307.928,1765.4824,302.5948,1767.3684,312.44,1767.6369" style="stroke:#181818;stroke-width:1;"/></g><!--link UC06 to UC02--><g class="link" data-entity-1="UC06" data-entity-2="UC02" data-source-line="94" data-uid="lnk70" id="link_UC06_UC02"><path d="M283.12,738.3369 C254.04,731.8069 223.29,718.5269 208.33,691.7969 C172.1,627.0269 172.1,589.5769 208.33,524.7969 C229.94,486.1769 279.2079,477.3045 314.0779,475.5145" fill="none" id="UC06-to-UC02" style="stroke:#181818;stroke-width:1;stroke-dasharray:7,7;"/><polygon fill="#181818" points="320.07,475.2069,310.8768,471.6735,315.0766,475.4632,311.2869,479.663,320.07,475.2069" style="stroke:#181818;stroke-width:1;"/></g><!--link UC10 to UC08--><g class="link" data-entity-1="UC10" data-entity-2="UC08" data-source-line="95" data-uid="lnk71" id="link_UC10_UC08"><path d="M282.34,1912.6769 C253.48,1906.3069 223.12,1893.2369 208.33,1866.7969 C201.17,1853.9969 201.17,1846.5969 208.33,1833.7969 C223.06,1807.4769 247.3537,1795.7221 276.1137,1789.3121" fill="none" id="UC10-to-UC08" style="stroke:#181818;stroke-width:1;stroke-dasharray:7,7;"/><polygon fill="#181818" points="281.97,1788.0069,272.3154,1786.0605,277.0897,1789.0946,274.0557,1793.869,281.97,1788.0069" style="stroke:#181818;stroke-width:1;"/></g><!--link UC11 to UC07--><g class="link" data-entity-1="UC11" data-entity-2="UC07" data-source-line="96" data-uid="lnk72" id="link_UC11_UC07"><path d="M285.3,2123.8169 C255.56,2117.9069 223.6,2105.0969 208.33,2077.7969 C199.44,2061.8969 199.44,2052.7069 208.33,2036.7969 C223.6,2009.5069 249.6751,1997.8663 279.4151,1991.9563" fill="none" id="UC11-to-UC07" style="stroke:#181818;stroke-width:1;stroke-dasharray:7,7;"/><polygon fill="#181818" points="285.3,1990.7869,275.693,1988.6178,280.3959,1991.7614,277.2523,1996.4644,285.3,1990.7869" style="stroke:#181818;stroke-width:1;"/></g><!--link UC12 to UC07--><g class="link" data-entity-1="UC12" data-entity-2="UC07" data-source-line="97" data-uid="lnk73" id="link_UC12_UC07"><path d="M350.36,2036.4969 C350.36,2025.1269 350.36,2019.7569 350.36,2008.3769" fill="none" id="UC12-to-UC07" style="stroke:#181818;stroke-width:1;stroke-dasharray:7,7;"/><polygon fill="#181818" points="350.36,2002.3769,346.36,2011.3769,350.36,2007.3769,354.36,2011.3769,350.36,2002.3769" style="stroke:#181818;stroke-width:1;"/></g><!--link UC14 to UC13--><g class="link" data-entity-1="UC14" data-entity-2="UC13" data-source-line="98" data-uid="lnk74" id="link_UC14_UC13"><path d="M350.36,1656.0769 C350.36,1644.6669 350.36,1639.2569 350.36,1627.8569" fill="none" id="UC14-to-UC13" style="stroke:#181818;stroke-width:1;stroke-dasharray:7,7;"/><polygon fill="#181818" points="350.36,1621.8569,346.36,1630.8569,350.36,1626.8569,354.36,1630.8569,350.36,1621.8569" style="stroke:#181818;stroke-width:1;"/></g><!--link UC15 to UC14--><g class="link" data-entity-1="UC15" data-entity-2="UC14" data-source-line="99" data-uid="lnk75" id="link_UC15_UC14"><path d="M278.24,1539.4269 C250.66,1546.3269 222.45,1559.5669 208.33,1584.7969 C200.31,1599.1569 200.31,1607.4469 208.33,1621.7969 C223,1648.0069 247.0962,1659.7606 275.7362,1666.2006" fill="none" id="UC15-to-UC14" style="stroke:#181818;stroke-width:1;stroke-dasharray:7,7;"/><polygon fill="#181818" points="281.59,1667.5169,273.6868,1661.6399,276.7118,1666.42,271.9317,1669.445,281.59,1667.5169" style="stroke:#181818;stroke-width:1;"/></g><!--link UC19 to UC18--><g class="link" data-entity-1="UC19" data-entity-2="UC18" data-source-line="100" data-uid="lnk76" id="link_UC19_UC18"><path d="M291.58,987.1769 C260.16,992.2569 224.65,1004.6369 208.33,1033.7969 C185.99,1073.7569 185.99,1096.8469 208.33,1136.7969 C223.64,1164.1569 249.7232,1175.9871 279.4532,1182.1071" fill="none" id="UC19-to-UC18" style="stroke:#181818;stroke-width:1;stroke-dasharray:7,7;"/><polygon fill="#181818" points="285.33,1183.3169,277.3213,1177.5844,280.4327,1182.3087,275.7083,1185.4201,285.33,1183.3169" style="stroke:#181818;stroke-width:1;"/></g><!--link UC20 to UC18--><g class="link" data-entity-1="UC20" data-entity-2="UC18" data-source-line="101" data-uid="lnk77" id="link_UC20_UC18"><path d="M293.42,922.8869 C261.55,927.7769 224.97,940.0669 208.33,969.7969 C172.1,1034.5769 172.1,1072.0269 208.33,1136.7969 C223.64,1164.1569 249.7232,1175.9871 279.4532,1182.1071" fill="none" id="UC20-to-UC18" style="stroke:#181818;stroke-width:1;stroke-dasharray:7,7;"/><polygon fill="#181818" points="285.33,1183.3169,277.3213,1177.5844,280.4327,1182.3087,275.7083,1185.4201,285.33,1183.3169" style="stroke:#181818;stroke-width:1;"/></g><!--link UC24 to UC23--><g class="link" data-entity-1="UC24" data-entity-2="UC23" data-source-line="102" data-uid="lnk78" id="link_UC24_UC23"><path d="M282.71,362.7669 C253.74,356.4169 223.19,343.3569 208.33,316.7969 C200.74,303.2269 200.74,295.3769 208.33,281.7969 C223.6,254.5069 249.6751,242.8663 279.4151,236.9563" fill="none" id="UC24-to-UC23" style="stroke:#181818;stroke-width:1;stroke-dasharray:7,7;"/><polygon fill="#181818" points="285.3,235.7869,275.693,233.6178,280.3959,236.7614,277.2523,241.4644,285.3,235.7869" style="stroke:#181818;stroke-width:1;"/></g><!--link owner to GMN82--><g class="link" data-entity-1="owner" data-entity-2="GMN82" data-source-line="113" data-uid="lnk84" id="link_owner_GMN82"><path d="M142.72,2095.7669 C169.68,2116.1669 204.22,2140.9369 236.83,2160.2969 C247.54,2166.6669 259.12,2172.8969 270.63,2178.7269" fill="none" id="owner-GMN82" style="stroke:#181818;stroke-width:1;stroke-dasharray:7,7;"/></g><!--SRC=[RLLDRzGm4BtdLunw0IIADjclzeAqBBH2eb1rANTluaqCZXtPJiiAyT-PSM9llEMoolFR-NeUpqX-SE0q654t3YfXUEc4LfaJJdBOwiiRtQiAxYLp1srQk8H7Y-SCVpuALXlMPXahdJPmyS3hNZ93Vp0Nm2pq-178UwD_ecluzgn6LjDNe3TLAvImpZ24dcPq4kWxNV4JrGOKwDkUM-UfchwoZAfWgiOABZQzQxXoecHKrmNyoG1UOweOZ1lOb2NMvzwGxUDsbXFvHTT2XPE2JXwxYZaEMCD1I1weEL5tJB6Qm-wNaD86PZ4OISrGEMrGEIbq89T30fOxk6VMFcjJ1MgL_Kro3w8DGLeiOyn_Q_YO4F71V4tK1wEVRQHYIbV4xJWpPVE2koPkqtNoI9sGEirdaog_SzQ6ypmLnkUvSyprmMrUd5MprLAolJRJYxWHs5mdGfjeFHyIHlgpUXBE6qNI2untnpltFzfB_4FmPrJEbGsFnCfhJoblTTkXqLv8uOw1Nh_8k6rxbRQEJ-cEMuk213ilxgtHVGVRXaNflAwxXXaEDzWt8OjYDgHNSOqFISfmd4-K_ggTE8o1ezsve9D7SyflT42FC1hEXvPx8aKUU8ST6Qb5b6gZc3pYEudKSk9kgvNZyPqKNiVT4PzG2plkd51rDFCYll89GAcL6WQApMWQmENb- -6TJL6He7c25WbQ9cYLeAi4NKyHDl4K9H7o94AUHCYJ2DWUKvJ4ovDuHHAlIAh5MqHrad6OoEJ7OgXYdK1ySmaiKhWWnxud4eT-a8RWynGkKxWc3t7M9bxYp0t_NRmyMf6vdyM9gP_9fvjFO972A_BmwRUZDsQu7Dg_4PtDwBhXtMX3Dpg2AmBv2DO4YYbO302ldEvs10i2roCW1yLi2aORr2fJ6aV5i1hrOTXd0DCz1oLJq753kn6fFREYX2uiIrnF0eUJu1OveKhPL_XIe1ls2BHnhBz5lXjROay37F_s5fYgyBoSZisCbA6ipdCRjYcSDLP3YrHAFFSTs1bCH_AQMyonjvEW9IqKz3_6T3Ze9-cTHzrhvtHBOOSj3P3ixz7I-mzIO4CSHDqFLL2vB8mRNoTOFqpml6M2HWrJ9OzX_m40]--></g></svg>